<svg width="45" height="32" viewBox="0 0 45 32" fill="none" xmlns="http://www.w3.org/2000/svg">
<path d="M27.1396 7.58673H17.8389V24.3004H27.1396V7.58673Z" fill="#FF5F00"/>
<path d="M18.4271 15.9441C18.4257 14.3345 18.7904 12.7456 19.4938 11.2977C20.1972 9.84991 21.2207 8.58106 22.4869 7.58728C20.9189 6.35474 19.0357 5.58825 17.0526 5.3754C15.0695 5.16256 13.0665 5.51194 11.2726 6.38363C9.47874 7.25532 7.96626 8.61414 6.90811 10.3048C5.84996 11.9954 5.28882 13.9497 5.28882 15.9441C5.28882 17.9386 5.84996 19.8928 6.90811 21.5835C7.96626 23.2741 9.47874 24.6329 11.2726 25.5046C13.0665 26.3763 15.0695 26.7257 17.0526 26.5129C19.0357 26.3 20.9189 25.5335 22.4869 24.301C21.2207 23.3072 20.1972 22.0383 19.4938 20.5905C18.7904 19.1427 18.4257 17.5538 18.4271 15.9441Z" fill="#EB001B"/>
<path d="M39.6864 15.9441C39.6864 17.9386 39.1254 19.8928 38.0673 21.5834C37.0092 23.2741 35.4967 24.6329 33.7029 25.5046C31.909 26.3763 29.9061 26.7257 27.923 26.5129C25.94 26.3 24.0568 25.5335 22.4888 24.301C23.7539 23.3062 24.7766 22.0371 25.4799 20.5895C26.1832 19.1419 26.5486 17.5535 26.5486 15.9441C26.5486 14.3347 26.1832 12.7463 25.4799 11.2987C24.7766 9.85111 23.7539 8.58207 22.4888 7.58727C24.0568 6.35474 25.94 5.58825 27.923 5.3754C29.9061 5.16256 31.909 5.51195 33.7029 6.38365C35.4967 7.25535 37.0092 8.61417 38.0673 10.3048C39.1254 11.9955 39.6864 13.9497 39.6864 15.9441Z" fill="#F79E1B"/>
<path d="M38.6726 22.5305V22.1883H38.8106V22.1186H38.4592V22.1883H38.5973V22.5305H38.6726ZM39.3548 22.5305V22.1179H39.2471L39.1233 22.4017L38.9993 22.1179H38.8916V22.5305H38.9676V22.2193L39.0838 22.4876H39.1627L39.2788 22.2186V22.5305H39.3548Z" fill="#F79E1B"/>
</svg>
